<svg xmlns="http://www.w3.org/2000/svg" width="740.103" height="574.316" data-name="Layer 1"><path fill="#3f3d56" d="M717.413 0H69.793a22.717 22.717 0 0 0-22.69 22.69v394.62A22.717 22.717 0 0 0 69.793 440h647.62a22.717 22.717 0 0 0 22.69-22.69V22.69A22.717 22.717 0 0 0 717.413 0m20.69 417.31a20.69 20.69 0 0 1-20.69 20.69H69.793a20.69 20.69 0 0 1-20.69-20.69V157.676A155.676 155.676 0 0 1 204.78 2h512.634a20.69 20.69 0 0 1 20.69 20.69Z"/><path fill="#e6e6e6" d="M678.922 335.731h-296.63a11.628 11.628 0 0 1-11.614-11.614v-96.335a11.628 11.628 0 0 1 11.614-11.615h296.63a11.628 11.628 0 0 1 11.615 11.615v96.335a11.628 11.628 0 0 1-11.615 11.614"/><ellipse cx="216.405" cy="54.873" fill="#3f3d56" rx="8.642" ry="8.835"/><ellipse cx="186.551" cy="54.873" fill="#3f3d56" rx="8.642" ry="8.835"/><ellipse cx="156.698" cy="54.873" fill="#3f3d56" rx="8.642" ry="8.835"/><path fill="#e6e6e6" d="M498.776 145.109H377.91a7.52 7.52 0 0 1 0-15.04h120.866a7.52 7.52 0 0 1 0 15.04m94.324 25.452H377.91a7.52 7.52 0 0 1 0-15.04H593.1a7.52 7.52 0 1 1 0 15.04"/><path fill="#ffb6b6" d="m162.313 563.077 10.089-.001 4.799-38.915-14.89.001z"/><path fill="#2f2e41" d="m161.957 573.602 31.025-.001v-.393a12.076 12.076 0 0 0-12.075-12.075h-.001l-5.667-4.3-10.574 4.3h-2.708Z"/><path fill="#ffb6b6" d="m103.992 563.077 10.089-.001 4.799-38.915-14.89.001z"/><path fill="#2f2e41" d="m103.636 573.602 31.025-.001v-.393a12.076 12.076 0 0 0-12.075-12.075h-.001l-5.667-4.3-10.574 4.3h-2.708Z"/><path fill="#ffb6b6" d="m230.272 304.697-34.374-32.236 9.31-15.597 33.9 38.769a9.851 9.851 0 1 1-8.836 9.064"/><path fill="#2f2e41" d="M94.121 351.63s-4.267 38.406 4.979 74.679l-3.483 17.534 7.75 100.53h18.811l13.195-165.717 24.63 165.717h19.757l-2.425-91.037 8.552-87.482-3.573-19.914Z"/><path fill="#6c63ff" d="M146.103 202h-42l-7.063 17.958 1.704 141.984s83.214 0 88.904-5.69l-17.78-61.877-6.402-78.946Z"/><path fill="#2f2e41" d="m169.156 214.717 29.872 32.006 10.668 7.112 2.845 9.246-12.091 20.626-13.513-4.979-4.267-15.647-25.076-20.5-2.663-32.842z"/><path fill="#2f2e41" d="M142.188 203.016 147.103 224l6.762 74.998 9.246 56.899h26.674l-16.006-61.877-6.401-79.658-21.337-12.802zm-34.257 0 7.527 24.148 12.091 79.658-18.492 56.898-17.954.28-4.672-17.651 10.535-45.217-14.225-86.77 21.337-12.802z"/><circle cx="123.472" cy="169.431" r="25.458" fill="#ffb6b6"/><path fill="#2f2e41" d="M108.785 182.033s-1.223 1.855 1.138 9.724l-10.823-8.69-1.184-9.542s-5.509-19.674 13.378-29.117c0 0 16.526-8.657 32.265 3.934 0 0 6.295.787 5.508 1.574s-4.721 3.148-.787 2.361 6.296-4.722 6.296-2.36-7.083 7.869-7.083 7.869 2.755 7.476-16.132-2.755a21.108 21.108 0 0 1-10.864 11.377l.606.592-4.694 10.066s-4.87-6.443-7.624 4.967"/><path fill="#fff" d="m110.783 380.688 85.533-192.856a8.27 8.27 0 0 1 10.9-4.203l62.633 27.778a8.27 8.27 0 0 1 4.202 10.9L188.52 415.164a8.27 8.27 0 0 1-10.9 4.202l-62.633-27.778a8.27 8.27 0 0 1-4.203-10.9"/><path fill="#3f3d56" d="m110.783 380.688 85.533-192.856a8.27 8.27 0 0 1 10.9-4.203l62.633 27.778a8.27 8.27 0 0 1 4.202 10.9L188.52 415.164a8.27 8.27 0 0 1-10.9 4.202l-62.633-27.778a8.27 8.27 0 0 1-4.203-10.9m161.94-158.97a6.814 6.814 0 0 0-3.463-8.982l-62.634-27.778a6.814 6.814 0 0 0-8.982 3.463l-85.532 192.857a6.814 6.814 0 0 0 3.463 8.982l62.633 27.778a6.814 6.814 0 0 0 8.982-3.463Z"/><circle cx="204.278" cy="269.826" r="32.005" fill="#ccc"/><circle cx="188.708" cy="304.934" r="32.005" fill="#3f3d56"/><path fill="#6c63ff" d="M160.161 369.3a32.005 32.005 0 1 1 25.951-58.514c16.159 7.166 33.877 43.921 16.282 42.232-20.15-1.933-26.074 23.448-42.233 16.282"/><path fill="#ffb6b6" d="M117.113 350.313 92.103 288l20 4 16.691 53.435a9.851 9.851 0 1 1-11.681 4.878"/><path fill="#2f2e41" d="M76.618 229.563c-1.456 16.063 1.56 30.167 6.967 43.222l.695 11.612 5.56 7.917 23.706 3.095 4.353-13.728-9.744-12.965-.82-32.378-24.31-22.24Z"/><path fill="#f2f2f2" d="M54.259 556.983a2.27 2.27 0 0 1-1.645-3.934l.156-.618-.062-.148a6.094 6.094 0 0 0-11.241.041c-1.84 4.429-4.18 8.864-4.756 13.546a18.029 18.029 0 0 0 .316 6.2 72.281 72.281 0 0 1-6.575-30.02 69.766 69.766 0 0 1 .433-7.783q.358-3.178.995-6.31a73.119 73.119 0 0 1 14.5-30.99 19.46 19.46 0 0 0 8.093-8.396 14.843 14.843 0 0 0 1.35-4.057c-.394.052-1.486-5.948-1.189-6.316-.549-.834-1.532-1.248-2.131-2.06-2.983-4.044-7.091-3.338-9.237 2.157-4.582 2.312-4.626 6.148-1.815 9.836 1.79 2.347 2.035 5.523 3.605 8.035-.162.207-.33.407-.491.614a73.59 73.59 0 0 0-7.681 12.168 30.592 30.592 0 0 0-1.827-14.21c-1.748-4.216-5.025-7.768-7.91-11.414a6.28 6.28 0 0 0-11.184 3.083l-.017.161q.642.363 1.258.77a3.078 3.078 0 0 1-1.241 5.602l-.063.01a30.628 30.628 0 0 0 .808 4.58c-3.702 14.315 4.29 19.529 15.701 19.763.252.13.497.259.75.381a75.115 75.115 0 0 0-4.044 19.028 71.243 71.243 0 0 0 .052 11.503l-.02-.135a18.826 18.826 0 0 0-6.426-10.87c-4.946-4.063-11.933-5.56-17.268-8.825a3.533 3.533 0 0 0-5.412 3.437l.022.143a20.675 20.675 0 0 1 2.319 1.117q.643.363 1.258.77a3.078 3.078 0 0 1-1.24 5.602l-.063.01-.13.019a30.655 30.655 0 0 0 5.639 8.83c2.315 12.496 12.256 13.682 22.89 10.043h.007a75.092 75.092 0 0 0 5.044 14.726h18.02c.065-.2.123-.407.181-.607a20.474 20.474 0 0 1-4.986-.297c1.337-1.64 2.674-3.294 4.01-4.935a1.12 1.12 0 0 0 .085-.097c.678-.84 1.363-1.673 2.04-2.512l.001-.001a29.99 29.99 0 0 0-.878-7.64Z"/><path fill="#ccc" d="M255.81 573.126a1.186 1.186 0 0 1-1.19 1.19H1.33a1.19 1.19 0 0 1 0-2.38h253.29a1.187 1.187 0 0 1 1.19 1.19"/></svg>